<svg height="496pt" viewBox="-80 0 496 496" width="496pt" xmlns="http://www.w3.org/2000/svg"><path d="m8 223.601562c0 42.679688 6.625 85.09375 19.625 125.742188l5.976562 18.65625h268.796876l5.96875-18.664062c13.007812-40.648438 19.632812-83.0625 19.632812-125.734376 0-16.867187-4.542969-33.226562-12.808594-47.601562h-294.382812c-8.265625 14.375-12.808594 30.726562-12.808594 47.601562zm0 0" fill="#f0bc5e"/><path d="m305.65625 150.34375c-16.542969-16.542969-25.65625-38.542969-25.65625-61.945312v-24.398438h8c8.824219 0 16-7.175781 16-16v-32c0-8.824219-7.175781-16-16-16h-240c-8.824219 0-16 7.175781-16 16v32c0 8.824219 7.175781 16 16 16h8v24.398438c0 23.402343-9.113281 45.402343-25.65625 61.945312-19.566406 19.566406-30.34375 45.585938-30.34375 73.257812 0 43.558594 6.726562 86.6875 20.007812 128.167969l39.03125 121.972657c4.257813 13.3125 16.503907 22.257812 30.480469 22.257812h156.960938c13.976562 0 26.222656-8.945312 30.480469-22.246094l39.03125-121.976562c13.28125-41.488282 20.007812-84.609375 20.007812-128.175782 0-27.671874-10.777344-53.691406-30.34375-73.257812zm-284.769531 135.945312c-1.238281-7.914062-2.175781-15.863281-2.941407-23.839843 1.582032-3.769531 3.984376-6.449219 6.054688-6.449219 3.265625 0 8 6.230469 8 16s-4.734375 16-8 16c-1.167969 0-2.28125-.863281-3.113281-1.710938zm3.21875 17.695313c13.40625-.074219 23.894531-14.089844 23.894531-31.984375 0-17.945312-10.542969-32-24-32-2.640625 0-5.175781.59375-7.558594 1.632812-.265625-5.863281-.425781-11.746093-.433594-17.632812h303.984376c-.007813 5.886719-.167969 11.761719-.433594 17.632812-2.382813-1.03125-4.917969-1.632812-7.558594-1.632812-13.457031 0-24 14.054688-24 32 0 17.894531 10.488281 31.910156 23.894531 31.984375-1.085937 5.359375-2.292969 10.695313-3.597656 16.015625h-280.59375c-1.304687-5.320312-2.511719-10.65625-3.597656-16.015625zm291.007812-17.695313c-.832031.847657-1.945312 1.710938-3.113281 1.710938-3.265625 0-8-6.230469-8-16s4.734375-16 8-16c2.070312 0 4.472656 2.679688 6.0625 6.441406-.773438 7.972656-1.710938 15.933594-2.949219 23.847656zm-267.113281-270.289062h240l.007812 32h-240.007812zm-6.34375 145.65625c17.671875-17.671875 28.085938-40.617188 29.953125-65.28125l144.40625-.375-.039063-16-143.976562.375v-16.375h192v16.320312l-31.921875-.320312-.15625 16 32.460937.320312c1.855469 24.679688 12.273438 47.648438 29.960938 65.335938 12.800781 12.800781 21.089844 28.886719 24.214844 46.34375h-301.117188c3.125-17.457031 11.414063-33.542969 24.214844-46.34375zm220.0625 307.214844c-2.125 6.65625-8.246094 11.128906-15.238281 11.128906h-156.960938c-6.992187 0-13.113281-4.472656-15.238281-11.128906l-39.035156-121.976563c-1.15625-3.613281-2.207032-7.253906-3.253906-10.894531h272.015624c-1.054687 3.640625-2.105468 7.28125-3.253906 10.894531zm0 0"/><path d="m168 240c-13.457031 0-24 14.054688-24 32s10.542969 32 24 32 24-14.054688 24-32-10.542969-32-24-32zm0 48c-3.265625 0-8-6.230469-8-16s4.734375-16 8-16 8 6.230469 8 16-4.734375 16-8 16zm0 0"/><path d="m240 240c-13.457031 0-24 14.054688-24 32s10.542969 32 24 32 24-14.054688 24-32-10.542969-32-24-32zm0 48c-3.265625 0-8-6.230469-8-16s4.734375-16 8-16 8 6.230469 8 16-4.734375 16-8 16zm0 0"/><path d="m96 240c-13.457031 0-24 14.054688-24 32s10.542969 32 24 32 24-14.054688 24-32-10.542969-32-24-32zm0 48c-3.265625 0-8-6.230469-8-16s4.734375-16 8-16 8 6.230469 8 16-4.734375 16-8 16zm0 0"/></svg>