<svg xmlns="http://www.w3.org/2000/svg" viewBox="0 0 206.35 50.69"><defs><style>.cls-1{opacity:0.25;}.cls-2{fill:#b3603e;}</style></defs><title>scalloped-border</title><g id="Layer_2" data-name="Layer 2"><g id="Layer_2-2" data-name="Layer 2"><g class="cls-1"><rect class="cls-2" width="206.35" height="4"/><path class="cls-2" d="M55.58,12.83h-9C44.42,26.77,20.81,37.2,19.76,37.66l-.84.36-.85-.36A78.26,78.26,0,0,1,0,26.34V20.67c5.42,5.87,14.1,10.75,18.92,13C25.76,30.49,40.46,22,42.43,12.83H33.58c-1.83,6.91-12.5,11.76-13.82,12.33l-.84.36-.85-.36c-1.32-.57-12-5.42-13.82-12.33H0v-4H206.35v4h-4.6a17.46,17.46,0,0,0,4.6,7.84v5.67c-4.36-3.83-7.95-8.43-8.73-13.51h-9c1.13,8.6,9.32,16.51,17.76,22.52v4.92c-8.57-5.76-17.53-13.63-20.73-22.68-3.84,4.31-10.11,7.14-11.1,7.57l-.85.36-.84-.36c-1-.43-7.26-3.26-11.1-7.57-6.54,18.48-37.33,32.1-38.8,32.73l-.84.37-.84-.37c-1.47-.63-32.27-14.25-38.8-32.73-3.85,4.31-10.11,7.14-11.1,7.57l-.85.36-.84-.36c-1-.43-7.26-3.26-11.11-7.57C52,36.07,21.22,49.69,19.76,50.32l-.84.37-.85-.37A125.84,125.84,0,0,1,0,40.27V35.35A126.31,126.31,0,0,0,18.92,46.29C24.28,43.81,53.38,29.61,55.58,12.83Zm107.77,0c1.71,3.53,7.35,6.85,10.32,8.29,3-1.44,8.61-4.77,10.33-8.29Zm-51.59,0c1.71,3.53,7.35,6.85,10.33,8.29,3-1.44,8.61-4.77,10.32-8.29Zm-13.18,0c2,9.12,16.66,17.66,23.51,20.8,6.84-3.14,21.55-11.68,23.51-20.8h-8.85c-1.83,6.91-12.5,11.76-13.82,12.33l-.84.36-.85-.36c-1.32-.57-12-5.42-13.82-12.33Zm-13.16,0c2.2,16.79,31.3,31,36.67,33.46,5.36-2.48,34.46-16.68,36.66-33.46h-9C147.59,26.77,124,37.2,122.93,37.66l-.84.36-.84-.36c-1.06-.46-24.66-10.89-26.81-24.83Zm-25.25,0c1.72,3.53,7.35,6.85,10.33,8.29,3-1.44,8.61-4.77,10.33-8.29Zm-30.93,0H8.59c1.71,3.53,7.35,6.85,10.32,8.29C21.89,19.68,27.53,16.35,29.24,12.83Z"/></g></g></g></svg>